<svg xmlns="http://www.w3.org/2000/svg" viewBox="0 0 287.72 297.17"><defs><style>.cls-1{fill:#69f;}.cls-2{fill:#5c7dbe;}.cls-3{fill:#9dbeff;}.cls-4{font-size:82.6px;fill:#fff;stroke:#231f20;stroke-miterlimit:10;stroke-width:2px;font-family:Kenney-Mini-Square, Kenney Mini Square;}</style></defs><title>XYZ</title><g id="Layer_2" data-name="Layer 2"><g id="Layer_1-2" data-name="Layer 1"><g id="Cube1"><polygon class="cls-1" points="214.13 35.1 143.94 70.2 73.74 35.1 143.94 0 214.13 35.1"/><polygon class="cls-2" points="142.75 161.86 72.56 126.76 72.56 36.28 142.75 71.38 142.75 161.86"/><polygon class="cls-3" points="145.12 161.86 215.31 126.76 215.31 36.28 145.12 71.38 145.12 161.86"/><polygon class="cls-1" points="286.54 164.35 216.34 199.45 146.14 164.35 216.34 129.25 286.54 164.35"/><polygon class="cls-2" points="215.16 291.36 144.96 256.26 144.96 165.78 215.16 200.88 215.16 291.36"/><polygon class="cls-3" points="217.52 291.36 287.71 256.26 287.71 165.78 217.52 200.88 217.52 291.36"/><polygon class="cls-1" points="141.57 163.29 71.38 198.39 1.18 163.29 71.38 128.19 141.57 163.29"/><polygon class="cls-2" points="70.2 291.23 0 256.13 0 165.65 70.2 200.75 70.2 291.23"/><polygon class="cls-3" points="72.56 291.23 142.75 256.13 142.75 165.65 72.56 200.75 72.56 291.23"/><text class="cls-4" transform="matrix(1, 0.58, 0, 1, 87.46, 115.59)">X</text><text class="cls-4" transform="matrix(1, 0.58, 0, 1, 12.94, 243.91)">y</text><text class="cls-4" transform="matrix(1, 0.58, 0, 1, 158.61, 245.22)">z</text></g></g></g></svg>